<mxfile host="app.diagrams.net" agent="Mozilla/5.0 (Windows NT 10.0; Win64; x64; rv:130.0) Gecko/20100101 Firefox/130.0" version="24.8.3">
  <diagram name="Page-1" id="5-eFi0SFNiVXcTcfuUBh">
    <mxGraphModel dx="1980" dy="2833" grid="0" gridSize="10" guides="1" tooltips="1" connect="1" arrows="1" fold="1" page="1" pageScale="1" pageWidth="850" pageHeight="1100" background="none" math="0" shadow="0">
      <root>
        <mxCell id="0" />
        <mxCell id="1" parent="0" />
        <mxCell id="7jlCZqTn923pRpoRdsBg-36" value="" style="shape=flexArrow;endArrow=classic;html=1;rounded=0;labelBackgroundColor=default;fillColor=#9AC7BF;exitX=0.25;exitY=1;exitDx=0;exitDy=0;fontSize=28;" edge="1" parent="1" source="7jlCZqTn923pRpoRdsBg-14" target="7jlCZqTn923pRpoRdsBg-33">
          <mxGeometry width="50" height="50" relative="1" as="geometry">
            <mxPoint x="964" y="873" as="sourcePoint" />
            <mxPoint x="723" y="947" as="targetPoint" />
          </mxGeometry>
        </mxCell>
        <mxCell id="7jlCZqTn923pRpoRdsBg-41" value="" style="shape=flexArrow;endArrow=classic;html=1;rounded=0;labelBackgroundColor=default;fillColor=#9AC7BF;exitX=0.75;exitY=1;exitDx=0;exitDy=0;fontSize=28;" edge="1" parent="1" source="7jlCZqTn923pRpoRdsBg-32" target="7jlCZqTn923pRpoRdsBg-45">
          <mxGeometry width="50" height="50" relative="1" as="geometry">
            <mxPoint x="900" y="1113" as="sourcePoint" />
            <mxPoint x="995" y="1414" as="targetPoint" />
          </mxGeometry>
        </mxCell>
        <mxCell id="7jlCZqTn923pRpoRdsBg-44" value="" style="shape=flexArrow;endArrow=classic;html=1;rounded=0;labelBackgroundColor=default;fillColor=#9AC7BF;exitX=0.25;exitY=1;exitDx=0;exitDy=0;fontSize=28;" edge="1" parent="1" source="7jlCZqTn923pRpoRdsBg-32" target="7jlCZqTn923pRpoRdsBg-43">
          <mxGeometry width="50" height="50" relative="1" as="geometry">
            <mxPoint x="991" y="1340" as="sourcePoint" />
            <mxPoint x="750" y="1414" as="targetPoint" />
          </mxGeometry>
        </mxCell>
        <mxCell id="7jlCZqTn923pRpoRdsBg-58" value="" style="shape=flexArrow;endArrow=classic;html=1;rounded=0;labelBackgroundColor=default;fillColor=#9AC7BF;fontSize=28;" edge="1" parent="1" source="7jlCZqTn923pRpoRdsBg-45" target="7jlCZqTn923pRpoRdsBg-60">
          <mxGeometry width="50" height="50" relative="1" as="geometry">
            <mxPoint x="668" y="2114" as="sourcePoint" />
            <mxPoint x="1085" y="2138" as="targetPoint" />
          </mxGeometry>
        </mxCell>
        <mxCell id="7jlCZqTn923pRpoRdsBg-46" value="" style="shape=flexArrow;endArrow=classic;html=1;rounded=0;labelBackgroundColor=default;fillColor=#9AC7BF;entryX=0.5;entryY=0;entryDx=0;entryDy=0;fontSize=28;" edge="1" parent="1" source="7jlCZqTn923pRpoRdsBg-43" target="7jlCZqTn923pRpoRdsBg-42">
          <mxGeometry width="50" height="50" relative="1" as="geometry">
            <mxPoint x="813" y="1222" as="sourcePoint" />
            <mxPoint x="525" y="1344" as="targetPoint" />
          </mxGeometry>
        </mxCell>
        <mxCell id="7jlCZqTn923pRpoRdsBg-40" value="" style="shape=flexArrow;endArrow=classic;html=1;rounded=0;labelBackgroundColor=default;fillColor=#9AC7BF;entryX=0.75;entryY=0;entryDx=0;entryDy=0;fontSize=28;" edge="1" parent="1" source="7jlCZqTn923pRpoRdsBg-38" target="7jlCZqTn923pRpoRdsBg-32">
          <mxGeometry width="50" height="50" relative="1" as="geometry">
            <mxPoint x="789" y="873" as="sourcePoint" />
            <mxPoint x="525" y="962" as="targetPoint" />
          </mxGeometry>
        </mxCell>
        <mxCell id="7jlCZqTn923pRpoRdsBg-39" value="" style="shape=flexArrow;endArrow=classic;html=1;rounded=0;labelBackgroundColor=default;fillColor=#9AC7BF;entryX=0.25;entryY=0;entryDx=0;entryDy=0;fontSize=28;" edge="1" parent="1" source="7jlCZqTn923pRpoRdsBg-33" target="7jlCZqTn923pRpoRdsBg-32">
          <mxGeometry width="50" height="50" relative="1" as="geometry">
            <mxPoint x="831" y="1085" as="sourcePoint" />
            <mxPoint x="525" y="962" as="targetPoint" />
          </mxGeometry>
        </mxCell>
        <mxCell id="7jlCZqTn923pRpoRdsBg-34" value="" style="shape=flexArrow;endArrow=classic;html=1;rounded=0;labelBackgroundColor=default;fillColor=#9AC7BF;exitX=0.75;exitY=1;exitDx=0;exitDy=0;fontSize=28;" edge="1" parent="1" source="7jlCZqTn923pRpoRdsBg-14" target="7jlCZqTn923pRpoRdsBg-38">
          <mxGeometry width="50" height="50" relative="1" as="geometry">
            <mxPoint x="873" y="646" as="sourcePoint" />
            <mxPoint x="968" y="947" as="targetPoint" />
          </mxGeometry>
        </mxCell>
        <mxCell id="7jlCZqTn923pRpoRdsBg-26" value="" style="shape=flexArrow;endArrow=classic;html=1;rounded=0;entryX=0.25;entryY=0;entryDx=0;entryDy=0;labelBackgroundColor=default;fillColor=#9AC7BF;fontSize=28;" edge="1" parent="1" source="7jlCZqTn923pRpoRdsBg-3" target="7jlCZqTn923pRpoRdsBg-14">
          <mxGeometry width="50" height="50" relative="1" as="geometry">
            <mxPoint x="479" y="250" as="sourcePoint" />
            <mxPoint x="479" y="401" as="targetPoint" />
          </mxGeometry>
        </mxCell>
        <mxCell id="7jlCZqTn923pRpoRdsBg-27" value="" style="shape=flexArrow;endArrow=classic;html=1;rounded=0;labelBackgroundColor=default;fillColor=#9AC7BF;entryX=0.5;entryY=0;entryDx=0;entryDy=0;fontSize=28;" edge="1" parent="1" source="7jlCZqTn923pRpoRdsBg-4" target="7jlCZqTn923pRpoRdsBg-14">
          <mxGeometry width="50" height="50" relative="1" as="geometry">
            <mxPoint x="524" y="628" as="sourcePoint" />
            <mxPoint x="948" y="742" as="targetPoint" />
          </mxGeometry>
        </mxCell>
        <mxCell id="7jlCZqTn923pRpoRdsBg-28" value="" style="shape=flexArrow;endArrow=classic;html=1;rounded=0;entryX=0.75;entryY=0;entryDx=0;entryDy=0;labelBackgroundColor=default;fillColor=#9AC7BF;fontSize=28;" edge="1" parent="1" source="7jlCZqTn923pRpoRdsBg-11" target="7jlCZqTn923pRpoRdsBg-14">
          <mxGeometry width="50" height="50" relative="1" as="geometry">
            <mxPoint x="534" y="638" as="sourcePoint" />
            <mxPoint x="887" y="823" as="targetPoint" />
          </mxGeometry>
        </mxCell>
        <mxCell id="7jlCZqTn923pRpoRdsBg-22" value="" style="shape=flexArrow;endArrow=classic;html=1;rounded=0;entryX=0.5;entryY=0;entryDx=0;entryDy=0;labelBackgroundColor=default;fillColor=#9AC7BF;fontSize=28;" edge="1" parent="1" source="7jlCZqTn923pRpoRdsBg-5" target="7jlCZqTn923pRpoRdsBg-1">
          <mxGeometry width="50" height="50" relative="1" as="geometry">
            <mxPoint x="640.5" y="669" as="sourcePoint" />
            <mxPoint x="690.5" y="619" as="targetPoint" />
          </mxGeometry>
        </mxCell>
        <mxCell id="7jlCZqTn923pRpoRdsBg-23" value="" style="shape=flexArrow;endArrow=classic;html=1;rounded=0;entryX=0.5;entryY=0;entryDx=0;entryDy=0;labelBackgroundColor=default;fillColor=#9AC7BF;fontSize=28;" edge="1" parent="1" source="7jlCZqTn923pRpoRdsBg-6" target="7jlCZqTn923pRpoRdsBg-2">
          <mxGeometry width="50" height="50" relative="1" as="geometry">
            <mxPoint x="479" y="250" as="sourcePoint" />
            <mxPoint x="479" y="401" as="targetPoint" />
          </mxGeometry>
        </mxCell>
        <mxCell id="7jlCZqTn923pRpoRdsBg-24" value="" style="shape=flexArrow;endArrow=classic;html=1;rounded=0;labelBackgroundColor=default;fillColor=#9AC7BF;fontSize=28;" edge="1" parent="1" source="7jlCZqTn923pRpoRdsBg-7" target="7jlCZqTn923pRpoRdsBg-10">
          <mxGeometry width="50" height="50" relative="1" as="geometry">
            <mxPoint x="619" y="260" as="sourcePoint" />
            <mxPoint x="619" y="411" as="targetPoint" />
          </mxGeometry>
        </mxCell>
        <mxCell id="7jlCZqTn923pRpoRdsBg-1" value="&lt;b style=&quot;font-size: 28px;&quot;&gt;&lt;font style=&quot;font-size: 28px;&quot;&gt;01_process_challenge_set&lt;/font&gt;&lt;/b&gt;" style="rounded=0;whiteSpace=wrap;html=1;fillColor=default;strokeColor=default;fontSize=28;" vertex="1" parent="1">
          <mxGeometry x="47" y="391" width="409" height="60" as="geometry" />
        </mxCell>
        <mxCell id="7jlCZqTn923pRpoRdsBg-2" value="&lt;font style=&quot;font-size: 28px;&quot;&gt;&lt;b style=&quot;font-size: 28px;&quot;&gt;02_process_submission_set&lt;/b&gt;&lt;/font&gt;" style="rounded=0;whiteSpace=wrap;html=1;fillColor=default;strokeColor=default;fontSize=28;" vertex="1" parent="1">
          <mxGeometry x="645" y="391" width="417" height="60" as="geometry" />
        </mxCell>
        <mxCell id="7jlCZqTn923pRpoRdsBg-3" value="&lt;b style=&quot;font-size: 28px;&quot;&gt;&lt;font style=&quot;font-size: 28px;&quot;&gt;processed_challenge_set.csv&lt;br style=&quot;font-size: 28px;&quot;&gt;&lt;/font&gt;&lt;/b&gt;" style="image;aspect=fixed;html=1;points=[];align=center;fontSize=28;image=img/lib/azure2/general/Files.svg;" vertex="1" parent="1">
          <mxGeometry x="222.5" y="564" width="64" height="70" as="geometry" />
        </mxCell>
        <mxCell id="7jlCZqTn923pRpoRdsBg-4" value="&lt;font style=&quot;font-size: 28px;&quot;&gt;&lt;b style=&quot;font-size: 28px;&quot;&gt;processed_final_submission_set.csv&lt;/b&gt;&lt;/font&gt;" style="image;aspect=fixed;html=1;points=[];align=center;fontSize=28;image=img/lib/azure2/general/Files.svg;" vertex="1" parent="1">
          <mxGeometry x="830" y="566" width="64" height="70" as="geometry" />
        </mxCell>
        <mxCell id="7jlCZqTn923pRpoRdsBg-5" value="&lt;b style=&quot;font-size: 28px;&quot;&gt;&lt;font style=&quot;font-size: 28px;&quot;&gt;challenge_set.csv&lt;br style=&quot;font-size: 28px;&quot;&gt;&lt;/font&gt;&lt;/b&gt;" style="image;aspect=fixed;html=1;points=[];align=center;fontSize=28;image=img/lib/azure2/general/Files.svg;" vertex="1" parent="1">
          <mxGeometry x="222.5" y="168" width="64" height="70" as="geometry" />
        </mxCell>
        <mxCell id="7jlCZqTn923pRpoRdsBg-6" value="&lt;div style=&quot;font-size: 28px;&quot;&gt;&lt;font style=&quot;font-size: 28px;&quot;&gt;&lt;b style=&quot;font-size: 28px;&quot;&gt;final_submission_set.csv&lt;/b&gt;&lt;/font&gt;&lt;/div&gt;" style="image;aspect=fixed;html=1;points=[];align=center;fontSize=28;image=img/lib/azure2/general/Files.svg;" vertex="1" parent="1">
          <mxGeometry x="821.5" y="170" width="64" height="70" as="geometry" />
        </mxCell>
        <mxCell id="7jlCZqTn923pRpoRdsBg-7" value="&lt;font style=&quot;font-size: 28px;&quot;&gt;&lt;b style=&quot;font-size: 28px;&quot;&gt;Trajecotries&lt;/b&gt;&lt;b style=&quot;font-size: 28px;&quot;&gt; files&lt;br style=&quot;font-size: 28px;&quot;&gt;&lt;/b&gt;&lt;/font&gt;" style="image;aspect=fixed;html=1;points=[];align=center;fontSize=28;image=img/lib/azure2/general/Files.svg;" vertex="1" parent="1">
          <mxGeometry x="1415" y="170" width="64" height="70" as="geometry" />
        </mxCell>
        <mxCell id="7jlCZqTn923pRpoRdsBg-10" value="&lt;b style=&quot;font-size: 28px;&quot;&gt;03_summarize_trajectories&lt;/b&gt;" style="rounded=0;whiteSpace=wrap;html=1;fillColor=default;strokeColor=default;fontSize=28;" vertex="1" parent="1">
          <mxGeometry x="1223" y="391" width="448" height="60" as="geometry" />
        </mxCell>
        <mxCell id="7jlCZqTn923pRpoRdsBg-11" value="&lt;b style=&quot;font-size: 28px;&quot;&gt;summarized_trajectory.csv&lt;/b&gt;" style="image;aspect=fixed;html=1;points=[];align=center;fontSize=28;image=img/lib/azure2/general/Files.svg;" vertex="1" parent="1">
          <mxGeometry x="1415" y="566" width="64" height="70" as="geometry" />
        </mxCell>
        <mxCell id="7jlCZqTn923pRpoRdsBg-14" value="&lt;b style=&quot;font-size: 28px;&quot;&gt;04_add_trajectories_to_datasets&lt;/b&gt;" style="rounded=0;whiteSpace=wrap;html=1;fillColor=default;strokeColor=default;fontSize=28;" vertex="1" parent="1">
          <mxGeometry x="512" y="803" width="720" height="60" as="geometry" />
        </mxCell>
        <mxCell id="7jlCZqTn923pRpoRdsBg-17" value="" style="endArrow=classic;html=1;rounded=0;fontSize=28;" edge="1" parent="1">
          <mxGeometry width="50" height="50" relative="1" as="geometry">
            <mxPoint x="855" y="671" as="sourcePoint" />
            <mxPoint x="905" y="621" as="targetPoint" />
          </mxGeometry>
        </mxCell>
        <mxCell id="7jlCZqTn923pRpoRdsBg-29" value="" style="shape=flexArrow;endArrow=classic;html=1;rounded=0;labelBackgroundColor=default;fillColor=#9AC7BF;exitX=0.5;exitY=1;exitDx=0;exitDy=0;fontSize=28;" edge="1" parent="1" source="7jlCZqTn923pRpoRdsBg-1" target="7jlCZqTn923pRpoRdsBg-3">
          <mxGeometry width="50" height="50" relative="1" as="geometry">
            <mxPoint x="329.5" y="646" as="sourcePoint" />
            <mxPoint x="682.5" y="831" as="targetPoint" />
          </mxGeometry>
        </mxCell>
        <mxCell id="7jlCZqTn923pRpoRdsBg-30" value="" style="shape=flexArrow;endArrow=classic;html=1;rounded=0;labelBackgroundColor=default;fillColor=#9AC7BF;exitX=0.5;exitY=1;exitDx=0;exitDy=0;fontSize=28;" edge="1" parent="1" source="7jlCZqTn923pRpoRdsBg-2" target="7jlCZqTn923pRpoRdsBg-4">
          <mxGeometry width="50" height="50" relative="1" as="geometry">
            <mxPoint x="554" y="658" as="sourcePoint" />
            <mxPoint x="907" y="843" as="targetPoint" />
          </mxGeometry>
        </mxCell>
        <mxCell id="7jlCZqTn923pRpoRdsBg-31" value="" style="shape=flexArrow;endArrow=classic;html=1;rounded=0;labelBackgroundColor=default;fillColor=#9AC7BF;exitX=0.5;exitY=1;exitDx=0;exitDy=0;fontSize=28;" edge="1" parent="1" source="7jlCZqTn923pRpoRdsBg-10" target="7jlCZqTn923pRpoRdsBg-11">
          <mxGeometry width="50" height="50" relative="1" as="geometry">
            <mxPoint x="694" y="668" as="sourcePoint" />
            <mxPoint x="1047" y="853" as="targetPoint" />
          </mxGeometry>
        </mxCell>
        <mxCell id="7jlCZqTn923pRpoRdsBg-32" value="&lt;b style=&quot;font-size: 28px;&quot;&gt;05_label_encode&lt;/b&gt;" style="rounded=0;whiteSpace=wrap;html=1;fillColor=default;strokeColor=default;fontSize=28;" vertex="1" parent="1">
          <mxGeometry x="715" y="1152" width="350" height="60" as="geometry" />
        </mxCell>
        <mxCell id="7jlCZqTn923pRpoRdsBg-33" value="&lt;b style=&quot;font-size: 28px;&quot;&gt;challenge_set_with_trajectories.csv&lt;/b&gt;" style="image;aspect=fixed;html=1;points=[];align=center;fontSize=28;image=img/lib/azure2/general/Files.svg;" vertex="1" parent="1">
          <mxGeometry x="451" y="928" width="64" height="70" as="geometry" />
        </mxCell>
        <mxCell id="7jlCZqTn923pRpoRdsBg-38" value="&lt;b style=&quot;font-size: 28px;&quot;&gt;final_submission_set_with_trajectories.csv&lt;/b&gt;" style="image;aspect=fixed;html=1;points=[];align=center;fontSize=28;image=img/lib/azure2/general/Files.svg;" vertex="1" parent="1">
          <mxGeometry x="1285" y="928" width="64" height="70" as="geometry" />
        </mxCell>
        <mxCell id="7jlCZqTn923pRpoRdsBg-42" value="&lt;div style=&quot;font-size: 28px;&quot;&gt;&lt;b style=&quot;font-size: 28px;&quot;&gt;06_grid_search_xgboost&lt;/b&gt;&lt;/div&gt;" style="rounded=0;whiteSpace=wrap;html=1;fillColor=default;strokeColor=default;fontSize=28;" vertex="1" parent="1">
          <mxGeometry x="273" y="1503" width="423" height="60" as="geometry" />
        </mxCell>
        <mxCell id="7jlCZqTn923pRpoRdsBg-43" value="&lt;b&gt;encoded_challenge_set.csv&lt;/b&gt;" style="image;aspect=fixed;html=1;points=[];align=center;fontSize=28;image=img/lib/azure2/general/Files.svg;" vertex="1" parent="1">
          <mxGeometry x="451" y="1313" width="64" height="70" as="geometry" />
        </mxCell>
        <mxCell id="7jlCZqTn923pRpoRdsBg-45" value="&lt;b&gt;encoded_final_submission_set.csv&lt;/b&gt;" style="image;aspect=fixed;html=1;points=[];align=center;fontSize=28;image=img/lib/azure2/general/Files.svg;" vertex="1" parent="1">
          <mxGeometry x="1285" y="1313" width="64" height="70" as="geometry" />
        </mxCell>
        <mxCell id="7jlCZqTn923pRpoRdsBg-47" value="&lt;div style=&quot;font-size: 28px;&quot;&gt;&lt;font style=&quot;font-size: 28px;&quot;&gt;&lt;b style=&quot;font-size: 28px;&quot;&gt;07_select_most_important_features&lt;/b&gt;&lt;/font&gt;&lt;/div&gt;" style="rounded=0;whiteSpace=wrap;html=1;fillColor=default;strokeColor=default;fontSize=28;" vertex="1" parent="1">
          <mxGeometry x="222.5" y="1646" width="524.5" height="60" as="geometry" />
        </mxCell>
        <mxCell id="7jlCZqTn923pRpoRdsBg-54" value="" style="edgeStyle=orthogonalEdgeStyle;rounded=0;orthogonalLoop=1;jettySize=auto;html=1;fontSize=28;" edge="1" parent="1" source="7jlCZqTn923pRpoRdsBg-48" target="7jlCZqTn923pRpoRdsBg-47">
          <mxGeometry relative="1" as="geometry" />
        </mxCell>
        <mxCell id="7jlCZqTn923pRpoRdsBg-48" value="&lt;b style=&quot;font-size: 28px;&quot;&gt;08_choosing_n_estimators&lt;/b&gt;" style="rounded=0;whiteSpace=wrap;html=1;fillColor=default;strokeColor=default;fontSize=28;" vertex="1" parent="1">
          <mxGeometry x="281" y="1787" width="407" height="60" as="geometry" />
        </mxCell>
        <mxCell id="7jlCZqTn923pRpoRdsBg-49" value="&lt;b style=&quot;font-size: 28px;&quot;&gt;09_choosing_max_depth&lt;/b&gt;" style="rounded=0;whiteSpace=wrap;html=1;fillColor=default;strokeColor=default;fontSize=28;" vertex="1" parent="1">
          <mxGeometry x="279.5" y="1938" width="407" height="60" as="geometry" />
        </mxCell>
        <mxCell id="7jlCZqTn923pRpoRdsBg-50" value="&lt;b style=&quot;font-size: 28px;&quot;&gt;10_final_grid_search_xgboost&lt;/b&gt;" style="rounded=0;whiteSpace=wrap;html=1;fillColor=default;strokeColor=default;fontSize=28;" vertex="1" parent="1">
          <mxGeometry x="263.5" y="2074" width="442" height="60" as="geometry" />
        </mxCell>
        <mxCell id="7jlCZqTn923pRpoRdsBg-51" value="" style="shape=flexArrow;endArrow=classic;html=1;rounded=0;labelBackgroundColor=default;fillColor=#9AC7BF;entryX=0.5;entryY=0;entryDx=0;entryDy=0;exitX=0.5;exitY=1;exitDx=0;exitDy=0;fontSize=28;" edge="1" parent="1" source="7jlCZqTn923pRpoRdsBg-42" target="7jlCZqTn923pRpoRdsBg-47">
          <mxGeometry width="50" height="50" relative="1" as="geometry">
            <mxPoint x="493" y="1331" as="sourcePoint" />
            <mxPoint x="493" y="1513" as="targetPoint" />
          </mxGeometry>
        </mxCell>
        <mxCell id="7jlCZqTn923pRpoRdsBg-52" value="" style="shape=flexArrow;endArrow=classic;html=1;rounded=0;labelBackgroundColor=default;fillColor=#9AC7BF;exitX=0.5;exitY=1;exitDx=0;exitDy=0;fontSize=28;" edge="1" parent="1" source="7jlCZqTn923pRpoRdsBg-47" target="7jlCZqTn923pRpoRdsBg-48">
          <mxGeometry width="50" height="50" relative="1" as="geometry">
            <mxPoint x="493" y="1573" as="sourcePoint" />
            <mxPoint x="493" y="1694" as="targetPoint" />
          </mxGeometry>
        </mxCell>
        <mxCell id="7jlCZqTn923pRpoRdsBg-53" value="" style="shape=flexArrow;endArrow=classic;html=1;rounded=0;labelBackgroundColor=default;fillColor=#9AC7BF;exitX=0.5;exitY=1;exitDx=0;exitDy=0;fontSize=28;" edge="1" parent="1" source="7jlCZqTn923pRpoRdsBg-48" target="7jlCZqTn923pRpoRdsBg-49">
          <mxGeometry width="50" height="50" relative="1" as="geometry">
            <mxPoint x="493" y="1715" as="sourcePoint" />
            <mxPoint x="493" y="1799" as="targetPoint" />
          </mxGeometry>
        </mxCell>
        <mxCell id="7jlCZqTn923pRpoRdsBg-55" value="" style="shape=flexArrow;endArrow=classic;html=1;rounded=0;labelBackgroundColor=default;fillColor=#9AC7BF;exitX=0.5;exitY=1;exitDx=0;exitDy=0;fontSize=28;" edge="1" parent="1" source="7jlCZqTn923pRpoRdsBg-49" target="7jlCZqTn923pRpoRdsBg-50">
          <mxGeometry width="50" height="50" relative="1" as="geometry">
            <mxPoint x="493" y="1859" as="sourcePoint" />
            <mxPoint x="493" y="2052" as="targetPoint" />
          </mxGeometry>
        </mxCell>
        <mxCell id="7jlCZqTn923pRpoRdsBg-56" value="&lt;b style=&quot;font-size: 28px;&quot;&gt;11_limit_predicted_tow_by_aircraft_type&lt;/b&gt;" style="rounded=0;whiteSpace=wrap;html=1;fillColor=default;strokeColor=default;fontSize=28;" vertex="1" parent="1">
          <mxGeometry x="174" y="2210" width="628" height="60" as="geometry" />
        </mxCell>
        <mxCell id="7jlCZqTn923pRpoRdsBg-57" value="" style="shape=flexArrow;endArrow=classic;html=1;rounded=0;labelBackgroundColor=default;fillColor=#9AC7BF;exitX=0.5;exitY=1;exitDx=0;exitDy=0;entryX=0.5;entryY=0;entryDx=0;entryDy=0;fontSize=28;" edge="1" parent="1" source="7jlCZqTn923pRpoRdsBg-50" target="7jlCZqTn923pRpoRdsBg-56">
          <mxGeometry width="50" height="50" relative="1" as="geometry">
            <mxPoint x="493" y="1393" as="sourcePoint" />
            <mxPoint x="487" y="2221" as="targetPoint" />
          </mxGeometry>
        </mxCell>
        <mxCell id="7jlCZqTn923pRpoRdsBg-60" value="&lt;b style=&quot;font-size: 28px;&quot;&gt;12_RUN_OPTIMAL_XGBOOST&lt;/b&gt;" style="rounded=0;whiteSpace=wrap;html=1;fillColor=default;strokeColor=default;fontSize=28;" vertex="1" parent="1">
          <mxGeometry x="1093" y="2210" width="448" height="60" as="geometry" />
        </mxCell>
        <mxCell id="7jlCZqTn923pRpoRdsBg-61" value="" style="shape=flexArrow;endArrow=classic;html=1;rounded=0;labelBackgroundColor=default;fillColor=#9AC7BF;exitX=1;exitY=0.5;exitDx=0;exitDy=0;entryX=0;entryY=0.5;entryDx=0;entryDy=0;fontSize=28;" edge="1" parent="1" source="7jlCZqTn923pRpoRdsBg-56" target="7jlCZqTn923pRpoRdsBg-60">
          <mxGeometry width="50" height="50" relative="1" as="geometry">
            <mxPoint x="1327" y="1393" as="sourcePoint" />
            <mxPoint x="1327" y="2220" as="targetPoint" />
          </mxGeometry>
        </mxCell>
        <mxCell id="7jlCZqTn923pRpoRdsBg-62" value="&lt;b style=&quot;font-size: 28px;&quot;&gt;my_submission_v25.csv&lt;/b&gt;" style="image;aspect=fixed;html=1;points=[];align=center;fontSize=28;image=img/lib/azure2/general/Files.svg;" vertex="1" parent="1">
          <mxGeometry x="1285" y="2412" width="64" height="70" as="geometry" />
        </mxCell>
        <mxCell id="7jlCZqTn923pRpoRdsBg-63" value="" style="shape=flexArrow;endArrow=classic;html=1;rounded=0;labelBackgroundColor=default;fillColor=#9AC7BF;exitX=0.5;exitY=1;exitDx=0;exitDy=0;fontSize=28;" edge="1" parent="1" source="7jlCZqTn923pRpoRdsBg-60" target="7jlCZqTn923pRpoRdsBg-62">
          <mxGeometry width="50" height="50" relative="1" as="geometry">
            <mxPoint x="1327" y="1393" as="sourcePoint" />
            <mxPoint x="1327" y="2220" as="targetPoint" />
          </mxGeometry>
        </mxCell>
      </root>
    </mxGraphModel>
  </diagram>
</mxfile>
